<?xml version="1.0" standalone="no"?>
<!DOCTYPE svg PUBLIC "-//W3C//DTD SVG 20010904//EN"
 "http://www.w3.org/TR/2001/REC-SVG-20010904/DTD/svg10.dtd">
<svg version="1.0" xmlns="http://www.w3.org/2000/svg"
 width="96.000000pt" height="96.000000pt" viewBox="0 0 96.000000 96.000000"
 preserveAspectRatio="xMidYMid meet">

<g transform="translate(0.000000,96.000000) scale(0.100000,-0.100000)"
fill="#000000" stroke="none">
<path d="M293 758 l-53 -52 -33 32 -33 32 -24 -25 -24 -26 57 -57 57 -57 82
82 c81 81 82 82 63 103 -10 11 -23 20 -29 20 -6 0 -35 -23 -63 -52z m14 -56
l-67 -67 -41 42 c-25 25 -39 46 -34 53 5 8 18 2 41 -21 l34 -33 57 57 c38 38
61 53 67 47 7 -7 -12 -33 -57 -78z"/>
<path d="M464 756 c-3 -7 -4 -33 -2 -57 l3 -44 183 -3 182 -2 0 60 0 60 -180
0 c-145 0 -182 -3 -186 -14z m346 -31 c0 -25 0 -25 -102 -27 l-103 -2 103 -3
c168 -6 120 -23 -63 -23 l-165 0 0 40 0 40 165 0 165 0 0 -25z"/>
<path d="M578 693 c7 -3 16 -2 19 1 4 3 -2 6 -13 5 -11 0 -14 -3 -6 -6z"/>
<path d="M293 528 l-53 -52 -33 32 -33 32 -24 -25 -24 -26 57 -57 57 -57 82
82 c81 81 82 82 63 103 -10 11 -23 20 -29 20 -6 0 -35 -23 -63 -52z m77 9 c0
-6 -28 -39 -62 -74 l-61 -62 -48 41 c-39 33 -47 44 -37 55 9 11 17 8 45 -19
l33 -32 57 56 c53 53 73 63 73 35z"/>
<path d="M464 526 c-3 -7 -4 -33 -2 -57 l3 -44 183 -3 182 -2 0 60 0 60 -180
0 c-145 0 -182 -3 -186 -14z m346 -46 l0 -40 -165 0 -165 0 0 40 0 40 165 0
165 0 0 -40z"/>
<path d="M293 298 l-53 -52 -33 32 -33 32 -24 -25 -24 -26 57 -57 57 -57 82
82 c81 81 82 82 63 103 -10 11 -23 20 -29 20 -6 0 -35 -23 -63 -52z m77 9 c0
-7 -29 -42 -65 -77 l-65 -64 -45 44 c-35 34 -42 47 -33 57 9 11 17 8 45 -19
l33 -32 57 56 c53 54 73 63 73 35z"/>
<path d="M464 296 c-3 -7 -4 -33 -2 -57 l3 -44 183 -3 182 -2 0 60 0 60 -180
0 c-145 0 -182 -3 -186 -14z m346 -16 c0 -5 -28 -11 -62 -12 l-63 -2 63 -3
c58 -4 62 -5 62 -28 l0 -25 -165 0 -165 0 0 40 0 40 165 0 c103 0 165 -4 165
-10z"/>
<path d="M648 263 c7 -3 16 -2 19 1 4 3 -2 6 -13 5 -11 0 -14 -3 -6 -6z"/>
</g>
</svg>
